<svg version="1.1" id="Layer_1" xmlns="http://www.w3.org/2000/svg" xmlns:xlink="http://www.w3.org/1999/xlink" x="0px" y="0px"
	 width="100%" viewBox="0 0 247 96" enable-background="new 0 0 247 96" xml:space="preserve">
<path fill="#FBFBFF" opacity="1.000000" stroke="none" 
	d="
M193.000000,97.000000 
	C128.666672,97.000000 64.833344,97.000000 1.000009,97.000000 
	C1.000006,65.000008 1.000006,33.000011 1.000003,1.000013 
	C83.333321,1.000009 165.666641,1.000009 247.999969,1.000004 
	C247.999985,32.999989 247.999985,64.999977 248.000000,96.999985 
	C229.833328,97.000000 211.666672,97.000000 193.000000,97.000000 
M96.858772,51.234005 
	C99.001801,25.752182 76.900787,2.662773 48.113480,5.813462 
	C24.514317,8.396323 6.226369,33.142017 11.424562,56.181377 
	C16.222761,77.447891 34.572472,91.660622 55.879311,90.613686 
	C77.371140,89.557663 93.970184,73.956047 96.858772,51.234005 
M241.390335,46.323505 
	C235.928024,39.207592 228.284592,36.843021 219.798889,39.643997 
	C213.242020,41.808292 209.280151,47.144051 208.992950,54.197170 
	C208.700470,61.380085 212.474915,67.523483 218.748611,70.075737 
	C225.304626,72.742844 234.737732,71.184746 239.198563,66.408104 
	C244.610245,60.613297 244.585007,53.940289 241.390335,46.323505 
M165.757568,61.039330 
	C161.758560,64.900414 156.434891,65.243248 152.942825,61.864571 
	C149.260559,58.301857 149.153534,51.985168 152.713379,48.322521 
	C155.770813,45.176804 162.001205,44.364338 164.383942,47.645691 
	C167.240402,51.579407 170.531448,51.354019 174.371292,50.760822 
	C173.170242,42.300018 167.210876,38.107014 157.420013,38.743900 
	C148.223801,39.342106 142.129883,45.498280 141.932465,54.389702 
	C141.728165,63.591888 147.436295,70.244209 156.246033,71.070862 
	C166.859116,72.066742 172.837921,68.230698 174.639542,58.305573 
	C171.536270,59.036259 168.833344,59.672680 165.757568,61.039330 
M132.850098,43.489288 
	C129.789398,36.083721 123.770851,41.519356 119.510689,39.681087 
	C115.484596,50.156929 111.717300,59.959370 107.767830,70.235847 
	C111.999336,69.900398 116.471680,72.283958 117.959068,66.398079 
	C118.060715,65.995850 119.024101,65.577759 119.595222,65.565590 
	C123.411827,65.484230 127.232094,65.457130 131.047653,65.552757 
	C131.733429,65.569939 132.877121,66.116119 133.007629,66.624069 
	C134.583252,72.756447 139.107513,69.646675 143.035492,70.155075 
	C139.595581,61.207382 136.338623,52.735626 132.850098,43.489288 
M179.578430,39.781925 
	C174.013489,39.998840 177.844177,43.806831 176.392685,46.538887 
	C180.738281,46.538887 184.271088,46.538887 188.121704,46.538887 
	C188.121704,54.753983 188.121704,62.350655 188.121704,70.069855 
	C191.053192,70.069855 193.636688,70.069855 196.839050,70.069855 
	C196.839050,62.161743 196.839050,54.463680 196.839050,46.290661 
	C200.848129,46.290661 204.258560,46.290661 207.712830,46.290661 
	C207.712830,43.894947 207.712830,42.004936 207.712830,39.779957 
	C198.461853,39.779957 189.517334,39.779957 179.578430,39.781925 
z"/>
<path fill="#282896" opacity="1.000000" stroke="none" 
	d="
M96.833862,51.688747 
	C93.970184,73.956047 77.371140,89.557663 55.879311,90.613686 
	C34.572472,91.660622 16.222761,77.447891 11.424562,56.181377 
	C6.226369,33.142017 24.514317,8.396323 48.113480,5.813462 
	C76.900787,2.662773 99.001801,25.752182 96.833862,51.688747 
M84.059807,25.175980 
	C85.918045,28.020733 86.189850,31.216187 83.407158,33.138935 
	C81.557289,34.417130 77.919975,35.188602 76.316521,34.195267 
	C74.480423,33.057812 73.953804,29.738543 72.974342,27.320187 
	C72.588264,26.366922 72.855927,24.735710 72.242966,24.357208 
	C69.173256,22.461655 65.910278,20.879078 62.446156,19.043949 
	C62.446156,26.556482 62.446156,32.931007 62.446156,39.310890 
	C72.521736,39.310890 82.218224,39.310890 92.326210,39.310890 
	C90.989090,32.824955 88.333687,27.521961 83.731552,22.434090 
	C72.609863,10.592246 59.004097,6.276556 43.383591,10.469879 
	C28.808022,14.382689 19.522135,24.164206 15.287829,38.890106 
	C19.193352,40.225018 21.086487,39.468994 22.647257,35.499424 
	C26.514191,25.664503 33.966930,19.331633 44.074875,16.117081 
	C47.559788,15.008801 49.418568,15.484329 49.096310,19.767725 
	C48.809723,23.577040 48.814728,27.443800 49.137428,31.247332 
	C49.282387,32.955845 50.166706,34.887222 51.323677,36.168198 
	C54.241337,39.398598 54.718147,42.771545 51.862980,45.407097 
	C49.010265,48.040390 45.787041,48.048817 42.874176,45.513889 
	C39.925331,42.947655 40.406731,39.196339 43.630333,35.995148 
	C44.571583,35.060448 45.588585,33.704319 45.663437,32.485630 
	C45.915638,28.379341 45.759422,24.247971 45.759422,19.540430 
	C36.223488,21.937103 29.558657,27.476479 26.443016,35.794487 
	C24.230518,41.701324 21.407719,44.071014 15.459700,43.202106 
	C15.234384,43.169189 14.950165,43.539474 14.707764,43.711658 
	C10.765007,69.324203 35.438747,88.496529 51.769020,86.454872 
	C51.769020,76.545822 51.769020,66.628998 51.769020,56.130856 
	C45.806946,57.232101 39.582745,53.711845 34.577370,59.737926 
	C32.319206,62.456573 28.856628,61.267128 26.610252,58.916271 
	C24.278963,56.476543 24.155663,53.423653 26.373499,50.753086 
	C28.771992,47.864986 32.714756,47.272659 34.751133,49.722588 
	C37.934937,53.552979 41.594688,52.889847 45.418133,52.910946 
	C52.246910,52.948631 59.083679,53.100906 65.900299,52.810623 
	C67.907616,52.725143 70.151428,51.686584 71.771896,50.423923 
	C74.826385,48.043884 78.850632,47.772964 81.158531,50.490044 
	C83.546341,53.301189 83.545410,56.252018 81.018188,58.989983 
	C78.397690,61.829010 74.827194,61.679111 71.745674,58.826984 
	C70.716393,57.874325 69.568825,56.452263 68.391861,56.364536 
	C64.304413,56.059872 60.180325,56.246895 55.990070,56.246895 
	C55.990070,66.793968 55.990070,76.715538 55.990070,86.621185 
	C77.617638,87.599968 98.111916,63.583378 92.261360,43.026253 
	C82.481567,43.026253 72.660065,43.099342 62.842365,42.938965 
	C61.532215,42.917564 59.132088,41.747925 59.110508,41.051933 
	C58.849789,32.643085 58.941608,24.223307 58.941608,14.669952 
	C67.915443,18.200665 75.868553,21.329781 84.059807,25.175980 
M76.327606,27.876637 
	C75.770332,30.716152 77.120895,32.173988 79.784225,31.616482 
	C80.658012,31.433575 81.943878,29.162558 81.664360,28.285030 
	C80.815430,25.619902 78.897850,25.218035 76.327606,27.876637 
M32.188526,57.483871 
	C32.401768,55.768646 32.615009,54.053417 32.828251,52.338192 
	C31.402920,52.693474 29.977589,53.048759 28.552259,53.404041 
	C29.526312,54.844688 30.500366,56.285339 32.188526,57.483871 
M44.508495,40.676399 
	C44.642288,43.557228 46.207031,44.723507 48.710052,43.403278 
	C49.513351,42.979568 50.167252,40.523010 49.684322,39.736271 
	C48.197258,37.313686 46.274551,37.579140 44.508495,40.676399 
M78.038086,57.068108 
	C79.997101,55.112423 80.045059,53.186752 77.324501,52.208042 
	C76.470383,51.900776 74.243828,53.004185 74.001236,53.850529 
	C73.262627,56.427326 74.554688,57.858467 78.038086,57.068108 
z"/>
<path fill="#222292" opacity="1.000000" stroke="none" 
	d="
M241.585632,46.648560 
	C244.585007,53.940289 244.610245,60.613297 239.198563,66.408104 
	C234.737732,71.184746 225.304626,72.742844 218.748611,70.075737 
	C212.474915,67.523483 208.700470,61.380085 208.992950,54.197170 
	C209.280151,47.144051 213.242020,41.808292 219.798889,39.643997 
	C228.284592,36.843021 235.928024,39.207592 241.585632,46.648560 
M219.866028,48.263901 
	C219.172714,49.385307 218.237427,50.425838 217.830643,51.642998 
	C216.508453,55.599087 216.773499,59.873997 220.487167,61.863880 
	C223.311111,63.377018 227.502579,63.847294 230.588486,62.990704 
	C234.699875,61.849453 235.746964,57.689110 235.242386,53.556904 
	C234.369965,46.412182 227.532211,43.752048 219.866028,48.263901 
z"/>
<path fill="#232393" opacity="1.000000" stroke="none" 
	d="
M165.944000,60.674217 
	C168.833344,59.672680 171.536270,59.036259 174.639542,58.305573 
	C172.837921,68.230698 166.859116,72.066742 156.246033,71.070862 
	C147.436295,70.244209 141.728165,63.591888 141.932465,54.389702 
	C142.129883,45.498280 148.223801,39.342106 157.420013,38.743900 
	C167.210876,38.107014 173.170242,42.300018 174.371292,50.760822 
	C170.531448,51.354019 167.240402,51.579407 164.383942,47.645691 
	C162.001205,44.364338 155.770813,45.176804 152.713379,48.322521 
	C149.153534,51.985168 149.260559,58.301857 152.942825,61.864571 
	C156.434891,65.243248 161.758560,64.900414 165.944000,60.674217 
z"/>
<path fill="#212191" opacity="1.000000" stroke="none" 
	d="
M132.965881,43.876579 
	C136.338623,52.735626 139.595581,61.207382 143.035492,70.155075 
	C139.107513,69.646675 134.583252,72.756447 133.007629,66.624069 
	C132.877121,66.116119 131.733429,65.569939 131.047653,65.552757 
	C127.232094,65.457130 123.411827,65.484230 119.595222,65.565590 
	C119.024101,65.577759 118.060715,65.995850 117.959068,66.398079 
	C116.471680,72.283958 111.999336,69.900398 107.767830,70.235847 
	C111.717300,59.959370 115.484596,50.156929 119.510689,39.681087 
	C123.770851,41.519356 129.789398,36.083721 132.965881,43.876579 
M127.696999,50.981869 
	C127.047096,49.711517 126.397194,48.441166 125.205551,46.111877 
	C123.342285,51.031181 121.866425,54.927658 120.254692,59.182858 
	C123.919434,59.182858 126.915062,59.182858 130.401016,59.182858 
	C129.471725,56.355942 128.706726,54.028862 127.696999,50.981869 
z"/>
<path fill="#21218E" opacity="1.000000" stroke="none" 
	d="
M180.075623,39.780941 
	C189.517334,39.779957 198.461853,39.779957 207.712830,39.779957 
	C207.712830,42.004936 207.712830,43.894947 207.712830,46.290661 
	C204.258560,46.290661 200.848129,46.290661 196.839050,46.290661 
	C196.839050,54.463680 196.839050,62.161743 196.839050,70.069855 
	C193.636688,70.069855 191.053192,70.069855 188.121704,70.069855 
	C188.121704,62.350655 188.121704,54.753983 188.121704,46.538887 
	C184.271088,46.538887 180.738281,46.538887 176.392685,46.538887 
	C177.844177,43.806831 174.013489,39.998840 180.075623,39.780941 
z"/>
<path fill="#F7F7FE" opacity="1.000000" stroke="none" 
	d="
M83.821671,24.458897 
	C75.868553,21.329781 67.915443,18.200665 58.941608,14.669952 
	C58.941608,24.223307 58.849789,32.643085 59.110508,41.051933 
	C59.132088,41.747925 61.532215,42.917564 62.842365,42.938965 
	C72.660065,43.099342 82.481567,43.026253 92.261360,43.026253 
	C98.111916,63.583378 77.617638,87.599968 55.990070,86.621185 
	C55.990070,76.715538 55.990070,66.793968 55.990070,56.246895 
	C60.180325,56.246895 64.304413,56.059872 68.391861,56.364536 
	C69.568825,56.452263 70.716393,57.874325 71.745674,58.826984 
	C74.827194,61.679111 78.397690,61.829010 81.018188,58.989983 
	C83.545410,56.252018 83.546341,53.301189 81.158531,50.490044 
	C78.850632,47.772964 74.826385,48.043884 71.771896,50.423923 
	C70.151428,51.686584 67.907616,52.725143 65.900299,52.810623 
	C59.083679,53.100906 52.246910,52.948631 45.418133,52.910946 
	C41.594688,52.889847 37.934937,53.552979 34.751133,49.722588 
	C32.714756,47.272659 28.771992,47.864986 26.373499,50.753086 
	C24.155663,53.423653 24.278963,56.476543 26.610252,58.916271 
	C28.856628,61.267128 32.319206,62.456573 34.577370,59.737926 
	C39.582745,53.711845 45.806946,57.232101 51.769020,56.130856 
	C51.769020,66.628998 51.769020,76.545822 51.769020,86.454872 
	C35.438747,88.496529 10.765007,69.324203 14.707764,43.711658 
	C14.950165,43.539474 15.234384,43.169189 15.459700,43.202106 
	C21.407719,44.071014 24.230518,41.701324 26.443016,35.794487 
	C29.558657,27.476479 36.223488,21.937103 45.759422,19.540430 
	C45.759422,24.247971 45.915638,28.379341 45.663437,32.485630 
	C45.588585,33.704319 44.571583,35.060448 43.630333,35.995148 
	C40.406731,39.196339 39.925331,42.947655 42.874176,45.513889 
	C45.787041,48.048817 49.010265,48.040390 51.862980,45.407097 
	C54.718147,42.771545 54.241337,39.398598 51.323677,36.168198 
	C50.166706,34.887222 49.282387,32.955845 49.137428,31.247332 
	C48.814728,27.443800 48.809723,23.577040 49.096310,19.767725 
	C49.418568,15.484329 47.559788,15.008801 44.074875,16.117081 
	C33.966930,19.331633 26.514191,25.664503 22.647257,35.499424 
	C21.086487,39.468994 19.193352,40.225018 15.287829,38.890106 
	C19.522135,24.164206 28.808022,14.382689 43.383591,10.469879 
	C59.004097,6.276556 72.609863,10.592246 83.816414,23.097908 
	C83.874741,23.994120 83.848206,24.226509 83.821671,24.458897 
z"/>
<path fill="#ECECFB" opacity="1.000000" stroke="none" 
	d="
M83.940735,24.817438 
	C83.848206,24.226509 83.874741,23.994120 83.940506,23.413116 
	C88.333687,27.521961 90.989090,32.824955 92.326210,39.310890 
	C82.218224,39.310890 72.521736,39.310890 62.446156,39.310890 
	C62.446156,32.931007 62.446156,26.556482 62.446156,19.043949 
	C65.910278,20.879078 69.173256,22.461655 72.242966,24.357208 
	C72.855927,24.735710 72.588264,26.366922 72.974342,27.320187 
	C73.953804,29.738543 74.480423,33.057812 76.316521,34.195267 
	C77.919975,35.188602 81.557289,34.417130 83.407158,33.138935 
	C86.189850,31.216187 85.918045,28.020733 83.940735,24.817438 
z"/>
<path fill="#DFDFFB" opacity="1.000000" stroke="none" 
	d="
M76.540924,27.568743 
	C78.897850,25.218035 80.815430,25.619902 81.664360,28.285030 
	C81.943878,29.162558 80.658012,31.433575 79.784225,31.616482 
	C77.120895,32.173988 75.770332,30.716152 76.540924,27.568743 
z"/>
<path fill="#E6E6F8" opacity="1.000000" stroke="none" 
	d="
M31.831474,57.604931 
	C30.500366,56.285339 29.526312,54.844688 28.552258,53.404041 
	C29.977589,53.048759 31.402920,52.693474 32.828251,52.338192 
	C32.615009,54.053417 32.401768,55.768646 31.831474,57.604931 
z"/>
<path fill="#E5E5F9" opacity="1.000000" stroke="none" 
	d="
M44.615036,40.327110 
	C46.274551,37.579140 48.197258,37.313686 49.684322,39.736271 
	C50.167252,40.523010 49.513351,42.979568 48.710052,43.403278 
	C46.207031,44.723507 44.642288,43.557228 44.615036,40.327110 
z"/>
<path fill="#E6E6FA" opacity="1.000000" stroke="none" 
	d="
M77.720573,57.257454 
	C74.554688,57.858467 73.262627,56.427326 74.001236,53.850529 
	C74.243828,53.004185 76.470383,51.900776 77.324501,52.208042 
	C80.045059,53.186752 79.997101,55.112423 77.720573,57.257454 
z"/>
<path fill="#F8F8FE" opacity="1.000000" stroke="none" 
	d="
M220.160736,48.000195 
	C227.532211,43.752048 234.369965,46.412182 235.242386,53.556904 
	C235.746964,57.689110 234.699875,61.849453 230.588486,62.990704 
	C227.502579,63.847294 223.311111,63.377018 220.487167,61.863880 
	C216.773499,59.873997 216.508453,55.599087 217.830643,51.642998 
	C218.237427,50.425838 219.172714,49.385307 220.160736,48.000195 
z"/>
<path fill="#E4E4F8" opacity="1.000000" stroke="none" 
	d="
M127.819366,51.341824 
	C128.706726,54.028862 129.471725,56.355942 130.401016,59.182858 
	C126.915062,59.182858 123.919434,59.182858 120.254692,59.182858 
	C121.866425,54.927658 123.342285,51.031181 125.205551,46.111877 
	C126.397194,48.441166 127.047096,49.711517 127.819366,51.341824 
z"/>
</svg>